# xmcd CD database file
#
# Track frame offsets:
#	150
#	12212
#	21620
#	41942
#	54052
#	66840
#	77987
#	94922
#
# Disc length: 1553 seconds
#
# Revision: 0
# Processed by: cddbd v1.5.1PL0 Copyright (c) Steve Scherf et al.
# Submitted via: CDex 1.51
#
DISCID=66060f08
DTITLE=INSK@UT - GET HAPPY!!
DYEAR=2004
DGENRE=
TTITLE0=We are INSK@UT!!
TTITLE1=Do it again
TTITLE2=GOLD RUSH
TTITLE3=Green Peace
TTITLE4=Ready Steady Go
TTITLE5=SMILE
TTITLE6=雲
TTITLE7=STEP BY STEP
EXTD=YEAR: 2004
EXTT0=
EXTT1=
EXTT2=
EXTT3=
EXTT4=
EXTT5=
EXTT6=
EXTT7=
PLAYORDER=
